<?xml version="1.0" standalone="no"?>
<!DOCTYPE svg PUBLIC "-//W3C//DTD SVG 20010904//EN"
 "http://www.w3.org/TR/2001/REC-SVG-20010904/DTD/svg10.dtd">
<svg version="1.0" xmlns="http://www.w3.org/2000/svg"
 width="1280.000000pt" height="1280.000000pt" viewBox="0 0 1280.000000 1280.000000"
 preserveAspectRatio="xMidYMid meet">
<metadata>
Created by potrace 1.16, written by Peter Selinger 2001-2019
</metadata>
<g transform="translate(0.000000,1280.000000) scale(0.100000,-0.100000)"
fill="#000000" stroke="none">
<path d="M4668 10654 c-195 -47 -351 -209 -393 -409 -27 -130 -15 -226 47
-355 l40 -85 1701 -1702 1702 -1703 -1701 -1702 c-1602 -1604 -1703 -1707
-1738 -1775 -111 -218 -75 -465 93 -634 168 -168 416 -206 634 -98 56 28 258
226 1994 1962 2111 2112 1971 1965 2008 2119 30 126 13 262 -46 381 -28 56
-226 258 -1962 1994 -1736 1736 -1938 1934 -1994 1962 -118 59 -261 76 -385
45z"/>
</g>
</svg>
