<?xml version="1.0" standalone="no"?>
<!DOCTYPE svg PUBLIC "-//W3C//DTD SVG 20010904//EN"
 "http://www.w3.org/TR/2001/REC-SVG-20010904/DTD/svg10.dtd">
<svg version="1.0" xmlns="http://www.w3.org/2000/svg"
 width="1280.000000pt" height="1280.000000pt" viewBox="0 0 1280.000000 1280.000000"
 preserveAspectRatio="xMidYMid meet">
<metadata>
Created by potrace 1.16, written by Peter Selinger 2001-2019
</metadata>
<g transform="translate(0.000000,1280.000000) scale(0.100000,-0.100000)"
fill="#000000" stroke="none">
<path d="M2251 11185 c-182 -51 -337 -216 -376 -402 -22 -102 -22 -8664 0
-8766 41 -195 211 -368 402 -407 86 -18 245 -8 318 20 39 15 1175 767 3310
2190 2669 1779 3260 2177 3298 2221 81 93 137 238 137 359 0 121 -56 266 -137
359 -38 44 -629 442 -3298 2221 -2118 1412 -3271 2175 -3310 2190 -77 30 -260
38 -344 15z m3138 -3159 c1337 -891 2430 -1623 2429 -1628 -3 -7 -4865 -3248
-4874 -3248 -2 0 -4 1463 -4 3251 0 1788 4 3249 8 3247 5 -1 1103 -732 2441
-1622z"/>
<path d="M10283 10125 c-204 -44 -365 -207 -408 -412 -22 -102 -22 -6524 0
-6626 52 -245 275 -427 525 -427 249 0 473 182 525 427 22 102 22 6524 0 6626
-62 292 -348 476 -642 412z"/>
</g>
</svg>
